<?xml version="1.0" encoding="UTF-8" standalone="no"?>
<svg width="170px" height="103px" viewBox="0 0 170 103" version="1.1" xmlns="http://www.w3.org/2000/svg" xmlns:xlink="http://www.w3.org/1999/xlink">
    <!-- Generator: Sketch 39.1 (31720) - http://www.bohemiancoding.com/sketch -->
    <title>Group 2</title>
    <desc>Created with Sketch.</desc>
    <defs>
        <path d="M27.3143214,54.6994657 C42.3996045,54.6994657 54.6286427,42.4545732 54.6286427,27.3497329 C54.6286427,12.2448925 42.3996045,0 27.3143214,0 C12.2290382,0 0,12.2448925 0,27.3497329 C0,42.4545732 12.2290382,54.6994657 27.3143214,54.6994657 Z" id="path-1"></path>
        <mask id="mask-2" maskContentUnits="userSpaceOnUse" maskUnits="objectBoundingBox" x="-4" y="-4" width="62.6286427" height="62.6994657">
            <rect x="-4" y="-4" width="62.6286427" height="62.6994657" fill="white"></rect>
            <use xlink:href="#path-1" fill="black"></use>
        </mask>
    </defs>
    <g id="Page-2" stroke="none" stroke-width="1" fill="none" fill-rule="evenodd">
        <g id="Desktop-HD" transform="translate(-717.000000, -51.000000)">
            <g id="Group-2" transform="translate(716.000000, 55.000000)">
                <text id="Gabi-Schiopu-Copy-4" font-family="NexaLight, Nexa Light" font-size="29.3500004" font-weight="normal" letter-spacing="-0.581533134" fill="#FFFFFF">
                    <tspan x="0.530397641" y="91.0674157">Gabi Schiopu</tspan>
                </text>
                <g id="Oval-2-Copy-6-+-Path-7-Copy-7" transform="translate(59.567376, 0.000000)">
                    <use id="Oval-2-Copy-6" stroke="#FFFFFF" mask="url(#mask-2)" stroke-width="8" xlink:href="#path-1"></use>
                    <path d="M39.1412154,13.4448346 C36.0125858,13.196882 31.4672956,14.5731289 31.4476171,14.5925329 C23.4733815,17.0171138 19.1134034,21.9435636 17.9718583,25.6832668 C15.9013991,32.4660936 23.2019444,37.6883562 30.9214496,31.9627365 C31.2093334,31.7492108 31.4976179,31.5204198 31.7858255,31.2758737 C32.9726409,30.9130277 31.4589412,34.1499079 28.691061,35.7808798 C23.2418578,39.4257932 13.1092335,38.4871342 11.5660788,31.0432247 C10.0229241,23.5993153 16.4181237,12.8616204 32.6388804,11.7479035 C37.833898,11.5071886 42.269845,13.6927872 39.1412154,13.4448346 Z M21.8635556,40.6685022 C23.9055913,41.1094785 26.9398886,40.4742447 26.9535489,40.4616152 C32.277299,39.339743 33.9711508,36.2758903 34.8196368,34.3784555 C36.8073309,30.2089432 33.2602199,24.1738506 27.9749775,27.7422555 C27.7778748,27.8753322 27.5799148,28.0195919 27.3813919,28.1754342 C26.5889739,28.343868 27.7076679,26.0907558 29.5862952,25.1213386 C33.3016996,22.8939547 39.9099153,24.4217832 40.6320257,30.0188949 C41.3541361,35.6160066 36.7421807,42.9766128 26.0615759,42.4531894 C22.0723479,42.1877903 19.8215198,40.2275259 21.8635556,40.6685022 Z" id="Path-7-Copy-7" fill="#FFFFFF"></path>
                </g>
            </g>
        </g>
    </g>
</svg>